<svg width="48" height="24" viewBox="0 0 48 24" fill="none" xmlns="http://www.w3.org/2000/svg">
<path d="M34 2H38M36 14V10M28 13C28.2449 11.056 29.1947 9.26941 30.6692 7.97914C32.1438 6.68887 34.0407 5.98464 36 6C37.294 6.00138 38.5684 6.31664 39.7139 6.91876C40.8593 7.52088 41.8416 8.39187 42.5764 9.45702C43.3113 10.5222 43.7768 11.7497 43.933 13.0343C44.0892 14.3189 43.9315 15.6222 43.4733 16.8324C43.0152 18.0426 42.2703 19.1236 41.3025 19.9827C40.3348 20.8418 39.1731 21.4533 37.9171 21.7648C36.6611 22.0763 35.3482 22.0784 34.0912 21.771C32.8342 21.4637 31.6705 20.8559 30.7 20L28 17.6M33 17H28V22" stroke="white" stroke-width="2" stroke-linecap="round" stroke-linejoin="round"/>
<path d="M21 4.00002V20M6.029 4.28502C5.72551 4.10292 5.37913 4.00462 5.02523 4.00016C4.67133 3.99569 4.32259 4.08522 4.0146 4.2596C3.70661 4.43398 3.45041 4.68697 3.27216 4.99274C3.09391 5.2985 3 5.64609 3 6.00002V18C3 18.3539 3.09391 18.7015 3.27216 19.0073C3.45041 19.3131 3.70661 19.5661 4.0146 19.7404C4.32259 19.9148 4.67133 20.0043 5.02523 19.9999C5.37913 19.9954 5.72551 19.8971 6.029 19.715L16.026 13.717C16.3228 13.5397 16.5685 13.2885 16.7393 12.9879C16.91 12.6873 16.9999 12.3476 17.0002 12.0019C17.0005 11.6562 16.9112 11.3163 16.741 11.0154C16.5708 10.7145 16.3255 10.4628 16.029 10.285L6.029 4.28502Z" stroke="white" stroke-width="2" stroke-linecap="round" stroke-linejoin="round"/>
</svg>
