<svg width="40" height="40" viewBox="0 0 40 40" fill="none" xmlns="http://www.w3.org/2000/svg">
<g clip-path="url(#clip0_77_1290)">
<path d="M34.7638 39H5.23615C4.94421 39.0016 4.65479 38.9487 4.38442 38.8442C4.11404 38.7397 3.86801 38.5857 3.66036 38.391C3.45271 38.1963 3.28752 37.9648 3.17422 37.7095C3.06091 37.4542 3.00171 37.1803 3 36.9033V5.11898C3.00776 4.81209 3.08404 4.51025 3.22379 4.23338C3.36355 3.9565 3.56361 3.71089 3.81076 3.51276C4.05792 3.31463 4.34656 3.16847 4.65763 3.08394C4.9687 2.9994 5.29514 2.97842 5.61538 3.02236H8.23077V5.50357H5.61538V36.5188H34.3846V5.50357H31.7692V3.02236H34.7115C35.0078 3.01408 35.3029 3.06211 35.5793 3.16361C35.8558 3.26511 36.108 3.41803 36.3213 3.61339C36.5345 3.80874 36.7044 4.04258 36.8209 4.30114C36.9375 4.5597 36.9984 4.83777 37 5.11898V36.9033C36.9983 37.1803 36.9391 37.4542 36.8258 37.7095C36.7125 37.9648 36.5473 38.1963 36.3396 38.391C36.132 38.5857 35.886 38.7397 35.6156 38.8442C35.3452 38.9487 35.0558 39.0016 34.7638 39Z" fill="currentColor"/>
<path d="M17.5895 29.7775L11.278 23.466C11.0866 23.2394 10.9877 22.9489 11.0012 22.6526C11.0147 22.3562 11.1396 22.0759 11.3508 21.8676C11.5621 21.6594 11.8441 21.5385 12.1406 21.5292C12.4371 21.5199 12.7262 21.6229 12.9501 21.8175L17.5895 26.4569L27.7633 16.2831C27.9885 16.0902 28.2783 15.9894 28.5747 16.0009C28.871 16.0123 29.1521 16.1352 29.3618 16.3449C29.5715 16.5546 29.6944 16.8357 29.7058 17.1321C29.7173 17.4284 29.6165 17.7182 29.4236 17.9434L17.5895 29.7775Z" fill="currentColor"/>
<path d="M30 10H10V5.92577C10.0033 5.24065 10.3112 4.58443 10.8567 4.09997C11.4022 3.61552 12.1411 3.34206 12.9125 3.33914H15.15C15.4254 2.38395 16.0509 1.53733 16.9279 0.932747C17.8049 0.328161 18.8835 0 19.9938 0C21.104 0 22.1826 0.328161 23.0596 0.932747C23.9366 1.53733 24.5621 2.38395 24.8375 3.33914H27.075C27.8486 3.33913 28.5907 3.6113 29.1389 4.09607C29.6871 4.58084 29.9967 5.23874 30 5.92577V10ZM12.5 7.77971H27.5V5.92577C27.5 5.82861 27.4565 5.73543 27.3792 5.66673C27.3018 5.59802 27.1969 5.55943 27.0875 5.55943H22.5V4.44928C22.5 3.86042 22.2366 3.29569 21.7678 2.8793C21.2989 2.46292 20.663 2.22899 20 2.22899C19.337 2.22899 18.7011 2.46292 18.2322 2.8793C17.7634 3.29569 17.5 3.86042 17.5 4.44928V5.55943H12.9125C12.8583 5.55943 12.8047 5.5689 12.7546 5.58731C12.7046 5.60572 12.6591 5.63271 12.6208 5.66673C12.5825 5.70074 12.5521 5.74113 12.5314 5.78558C12.5107 5.83002 12.5 5.87766 12.5 5.92577V7.77971Z" fill="currentColor"/>
</g>
<defs>
<clipPath id="clip0_77_1290">
<rect width="40" height="40" fill="currentColor"/>
</clipPath>
</defs>
</svg>
