<svg width="40" height="40" viewBox="0 0 40 40" fill="none" xmlns="http://www.w3.org/2000/svg">
<path d="M7.25 34.5711H13.625V23.7775C13.625 23.1659 13.829 22.6535 14.237 22.2405C14.645 21.8274 15.1493 21.6202 15.75 21.6188H24.25C24.8521 21.6188 25.3571 21.826 25.7651 22.2405C26.1731 22.655 26.3764 23.1673 26.375 23.7775V34.5711H32.75V15.1426L20 5.4283L7.25 15.1426V34.5711ZM3 34.5711V15.1426C3 14.459 3.15087 13.8114 3.45262 13.1997C3.75437 12.5881 4.17017 12.0844 4.7 11.6886L17.45 1.97433C18.1937 1.39867 19.0437 1.11084 20 1.11084C20.9562 1.11084 21.8062 1.39867 22.55 1.97433L35.3 11.6886C35.8312 12.0844 36.2477 12.5881 36.5495 13.1997C36.8512 13.8114 37.0014 14.459 37 15.1426V34.5711C37 35.7584 36.5835 36.7752 35.7505 37.6214C34.9175 38.4677 33.9173 38.89 32.75 38.8886H24.25C23.6479 38.8886 23.1436 38.6814 22.737 38.2669C22.3304 37.8524 22.1264 37.3401 22.125 36.7299V25.9362H17.875V36.7299C17.875 37.3415 17.671 37.8546 17.263 38.2691C16.855 38.6835 16.3507 38.89 15.75 38.8886H7.25C6.08125 38.8886 5.08108 38.4662 4.2495 37.6214C3.41792 36.7766 3.00142 35.7599 3 34.5711Z" fill="currentColor"/>
</svg>
