<svg width="40" height="41" viewBox="0 0 40 41" fill="none" xmlns="http://www.w3.org/2000/svg">
<path d="M24.4161 1.52344V8.78808C24.4161 9.77192 24.8101 10.7174 25.507 11.4143C26.2078 12.1121 27.1565 12.5036 28.1454 12.5032H36.4788" stroke="currentColor" stroke-width="3.0303" stroke-linecap="round" stroke-linejoin="round"/>
<path d="M11.2061 11.4101H17.8021M11.2061 20.204H28.794M11.2061 28.998H28.794M36.6667 13.2707V30.5798C36.6266 31.712 36.3628 32.825 35.8906 33.8548C35.4183 34.8845 34.747 35.8107 33.9152 36.5798C33.0827 37.3525 32.1061 37.9536 31.0413 38.3487C29.9764 38.7439 28.8441 38.9254 27.7091 38.8828H12.3758C11.2339 38.935 10.0928 38.7613 9.01817 38.3716C7.9435 37.982 6.9563 37.384 6.11317 36.6121C5.27331 35.8409 4.59508 34.9105 4.11787 33.8749C3.64067 32.8394 3.374 31.7193 3.33337 30.5798V9.82424C3.37348 8.69206 3.63726 7.57902 4.10949 6.54925C4.58173 5.51949 5.25309 4.59336 6.08489 3.82424C6.91738 3.05156 7.89394 2.45046 8.9588 2.0553C10.0237 1.66014 11.1559 1.47865 12.2909 1.52121H23.8344C25.5966 1.51498 27.2976 2.16699 28.6041 3.34949L34.5839 8.84848C35.222 9.39813 35.7372 10.076 36.0961 10.8379C36.4549 11.5998 36.6493 12.4287 36.6667 13.2707Z" stroke="currentColor" stroke-width="3.0303" stroke-linecap="round" stroke-linejoin="round"/>
</svg>
