<svg width="40" height="40" viewBox="0 0 40 40" fill="none" xmlns="http://www.w3.org/2000/svg">
<path d="M23.3333 21.6669L9.36496 35.6335C9.03665 35.9619 8.64688 36.2225 8.21789 36.4003C7.78889 36.578 7.32909 36.6696 6.86472 36.6696C5.92688 36.6698 5.02739 36.2974 4.36413 35.6344C3.70086 34.9713 3.32816 34.072 3.328 33.1341C3.32785 32.1963 3.70025 31.2968 4.36329 30.6335L18.3333 16.6652M26.6216 6.71186C24.1545 5.14381 21.3956 4.09123 18.511 3.61748C15.6263 3.14373 12.6757 3.2586 9.83663 3.95519C7.50663 4.52519 8.01663 7.55186 10.2983 8.29019C13.7893 9.42179 17.0683 11.1249 20.0016 13.3302M26.6683 19.9985C28.8739 22.9329 30.577 26.213 31.7083 29.7052C32.4483 31.9869 35.475 32.4985 36.0466 30.1685C36.7404 27.3422 36.8578 24.4051 36.3916 21.5324C35.9254 18.6597 34.8853 15.9104 33.3333 13.4485" stroke="currentColor" stroke-width="3" stroke-linecap="round" stroke-linejoin="round"/>
<path d="M30.5863 5.58666C30.2097 5.21009 29.6989 4.99854 29.1663 4.99854C28.6337 4.99854 28.123 5.21009 27.7463 5.58666L18.9197 14.4133C18.5431 14.7899 18.3315 15.3007 18.3315 15.8333C18.3315 16.3659 18.5431 16.8767 18.9197 17.2533L22.7463 21.08C23.123 21.4566 23.6337 21.6681 24.1663 21.6681C24.6989 21.6681 25.2097 21.4566 25.5863 21.08L34.413 12.2533C34.7896 11.8767 35.0011 11.3659 35.0011 10.8333C35.0011 10.3007 34.7896 9.78995 34.413 9.41332L30.5863 5.58666Z" stroke="currentColor" stroke-width="3" stroke-linecap="round" stroke-linejoin="round"/>
</svg>
