<svg width="49" height="48" viewBox="0 0 49 48" fill="none" xmlns="http://www.w3.org/2000/svg">
<path d="M22.1939 3.73962C23.1667 2.38849 24.2206 2.0507 24.6259 2.0507C25.6528 2.0507 26.3148 2.68123 26.5175 2.9965C27.1661 3.91527 28.274 6.12663 28.7469 7.11746C29.5801 8.78386 31.3546 12.3869 31.7869 13.4678C32.3544 14.8865 32.867 14.8216 33.6785 14.8865C42.1231 15.562 44.3525 16.1025 45.3658 16.643C46.3792 17.1834 47.2574 18.7372 46.109 20.5612C45.1902 22.0205 41.5376 25.4478 39.8262 26.9791C39.4208 27.3394 38.448 28.2222 37.7995 28.8707C37.1509 29.5193 37.1689 30.357 37.259 30.6947C37.9346 34.3428 38.475 39.4771 38.5426 41.5714C38.6102 43.6656 37.1239 44.5439 35.9754 44.3412C35.0567 44.1791 32.485 42.8775 31.314 42.2469L26.8553 39.7473C26.2698 39.4096 25.0177 38.734 24.6935 38.734C24.3692 38.734 23.6126 39.0943 23.2748 39.2744C20.9103 40.558 15.8976 43.2603 14.7626 43.8007C13.344 44.4763 10.439 44.2736 10.6417 40.8282C10.8038 38.0719 11.565 35.4012 11.9253 34.4104C12.1505 33.6222 13.3169 31.627 16.1813 29.9516C19.0457 28.2762 23.545 26.1459 25.4366 25.2902C25.8645 25.0425 26.6932 24.5065 26.5851 24.3444C26.477 24.1823 25.5492 24.2769 25.0988 24.3444C22.0813 24.8398 15.3842 25.8982 12.7359 26.1684C10.0877 26.4387 7.30889 24.7047 6.2505 23.804C5.01196 22.8582 2.54839 20.5748 2.60244 19.0074C2.65648 17.4401 3.70586 16.688 4.2238 16.5078C7.66919 15.2918 15.9111 15.1567 16.6542 14.4811C17.2487 13.9407 17.6676 13.085 17.8027 12.7247C18.8611 10.2926 21.2211 5.09076 22.1939 3.73962Z" fill="url(#paint0_linear_4929_60652)" stroke="black" stroke-width="2" stroke-linejoin="round" stroke-linecap="round"/>
<path d="M14.9643 14.9003C20.4504 14.452 28.3543 14.6055 31.8537 14.7513L34.1217 14.9224C42.2017 15.5814 44.3704 16.112 45.3658 16.6429C46.3792 17.1833 47.2574 18.7372 46.109 20.5612C45.1902 22.0204 41.5376 25.4478 39.8262 26.9791C39.4208 27.3394 38.448 28.2221 37.7995 28.8707C37.7537 28.9164 37.7115 28.9633 37.6721 29.0106C32.6078 33.3914 27.4084 36.9 25.1656 38.261L23.6853 39.0705C23.525 39.1451 23.3797 39.2184 23.2748 39.2744C20.9103 40.558 15.8976 43.2602 14.7626 43.8007C13.3439 44.4762 10.439 44.2736 10.6417 40.8282C10.8038 38.0719 11.565 35.4011 11.9253 34.4103C12.1505 33.6221 13.317 31.6269 16.1813 29.9516C19.0457 28.2762 23.545 26.1459 25.4366 25.2901C25.8645 25.0424 26.6932 24.5065 26.5851 24.3444C26.4769 24.1823 25.5492 24.2768 25.0988 24.3444C22.0813 24.8398 15.3842 25.8982 12.7359 26.1684C10.0877 26.4386 7.30888 24.7047 6.2505 23.8039C5.01195 22.8581 2.54839 20.5747 2.60244 19.0074C2.6565 17.4401 3.70586 16.6879 4.2238 16.5078C6.83313 15.5868 12.1936 15.2856 14.9643 14.9003Z" fill="url(#paint1_linear_4929_60652)"/>
<defs>
<linearGradient id="paint0_linear_4929_60652" x1="24.6267" y1="2.0507" x2="24.6267" y2="44.3696" gradientUnits="userSpaceOnUse">
<stop stop-color="#FEB92D"/>
<stop offset="1" stop-color="#FFAC12"/>
</linearGradient>
<linearGradient id="paint1_linear_4929_60652" x1="32.4617" y1="14.6162" x2="10.9111" y2="44.0709" gradientUnits="userSpaceOnUse">
<stop stop-color="#FDD133"/>
<stop offset="1" stop-color="#FFE933"/>
</linearGradient>
</defs>
</svg>
